/* XPM */
static char *bd7bc46a8b624f7cdc5e39a7c728e223Wj22tAa3h4jI8bSe[] = {
/* columns rows colors chars-per-pixel */
"64 64 21 1 ",
"  c black",
". c #170606",
"X c #200707",
"o c #2E0E0F",
"O c #3C1313",
"+ c #2E221C",
"@ c #3B2921",
"# c #451816",
"$ c #491C19",
"% c #4D1C1A",
"& c #4D1F1D",
"* c #58221F",
"= c #5B231E",
"- c #463124",
"; c #612723",
": c #68312E",
"> c #74362A",
", c #693433",
"< c #713633",
"1 c #7E3C34",
"2 c #844241",
/* pixels */
"++++++@@--@@-@-@@@@@+@@--@-@@@@++++@+@@-----@-@+++++@+@---@-@@@@",
"=====%#%@----@@@#::=%#O+->2,<<=======%####%;;<<;<;;=%#O@->2,<<==",
"&%%%&&%#==:::==::&%%#%#X@1&%%%%===&%%%%O%%&%%%%=;%%%#%#X@1&%%%=&",
"%%%&&%%%%%&%%%=&&%%%%#%o@;%%%%&&&&%%%%%%%&%%%&=%%%%%%#%o+;%%%=&%",
"%&&&%%%O%%%%%=&%%%%%%%%X@;%%%;;%&%%%%%%%%=%%;;%%%%%%%%%X+;%%;%%&",
"&&%%%%%O%%%%;%%%%%%%%%#X+;%&=%%&%&%%%#%%%=%=%%%%%%%%%%#X@;%&;%&%",
"%%%%%%O%%%%&;%&%%%%%=OoX@;%=&%&%&&%%#%%%%%=&%%%%%%%%=OoX+;%=%%%&",
"%%%#%#%%%%=&%&%&%%%%OOoo+;=%%%%&%%%#%#%%==&&%&%&%%%%OOoo@;=%%%&%",
"%%%O%%%%%%=&&%&%%%%=OOoX+$;%%%%%%%#%#%%%%&%&&%&%%%%=OOoX+$;%%%%%",
"%%OO%%%%%%=&%&&%%%=O#Ooo+$%%%%%%%%%#%%%%&%&&%&&%%%=O#Ooo@$%%%%%%",
"%=O#%#%%%%&%%%%%#%O#%#Oo@O%%%%%%%=O#%%%O%&%%%%%%#%O#%#Oo@O%%%%%%",
"=O#%#%%%%%%%%%%#%##%%%Oo+OO%%%%%=O#%%%%%&%%%%%%#%##%%%Oo@oO%%%%%",
"#%#%%%%%%%%%%#%#%%%%%%%X@O#%%%=OO#%%%%%%%%%%%#%#%%%%%%%X@O#%%%=O",
"%%%%%%%#%#%%%%%%%%%%%%#X@#%%%%OOOO#%%%%%%#%%%%%%%%%%%%#X@#%%=OOO",
"%%OO#%%O%#OOO%%%%%OO%%OX@#OO%#ooooOO%%#O%#OOO%%%%%OO%%O @#OOOOO#",
"ooooXoX  XXXXoXooooooXX@-+XXXXXoXooooXXX  XXXoXooooooX @- XXXoXo",
"-@++++@+@++++@@+@@++@+@---+@++@+@@+@++++++@+@@+@++++@----+@+@+@-",
"==%#O--@:&==&&&Oo+@+;;&;&>>;>;;;$OOO##@-->;;;;OoOO###OOO%%%&====",
"&%&%#X->&%%;&%&%&o+;&&%%%%&%%%%=;%O##%X@:&%%%%%Oo#%%%%#O%%%%%%=&",
"%%%%%o+;%%;&%&%&&oOO;%%%%%%%%&=%%%%#%#X-;%%=%%%#O%%%%#%#%%%%%=&%",
"&&&%OX@;%;%%&%%%%%;>>%%%%%%%;;%%%%%%##X@;%=%%%%%O%%%%%#%%%%%;%%&",
"&%%%Oo+;%%%%%%%%%%%%%%%O%%%=%%%%%%%#%#o+;=&%%%%#%O%%%%%#%%%%;%&&",
"%&%O%o+O%%%%%%#%%%%%%%%%%%=&%%%%%%%%#OX@>&%&%%%%#O%%%%%%%%%%%%%&",
"%%#%%o+oO#%#%#%%%%#%%%%%%%&%%%%%%%%=OOo+;%&%%%%%%O%#%%%%%%%%%%&%",
"%%%%%o+OoOO%#%#%##%#%%%%%%&%%&%&%%%=O%o+=&&%%%%%##O%%%%%%%%%%%%%",
"%%%%#o+O#%%OOO#O#%%%%%%%%%%%&&&%%%%O#Oo@%%%%%%%%#%%#%%%%%%%%%%%%",
"%%%##o+#%%%%%##%O%%%%%%%%%%%&&%%%%%OO%o+O%%%%%%#%%%%%%%%%O%%%%%%",
"%%OOOo+#%%%%%%%#%#%%=%%%%%%&&%&%%%%O%Oo@O%%;%%%%#%%%==#O%OO%%%%%",
"OO#%#X+O%#%%%%%%%%%=#%%%%%&%&%%#%%O#%#o@;&%%%%%%%%%%#%#%%%##%#%O",
"O%%##X@O#%#%#%%%%%=#%##%%#%%%%O%%#O%#%X@#%%%%%%%%%%%%%#%%%#%#%##",
"%O#%OX+OO#%#%#%%%=OO##o%%O#%OO%%%#O##OX@O#%OOO%%%%%%#%%%%#%###OO",
"oooXX+@+XXXoooXoooooXoXX XXoXooooooXX +-@XoXoooooooXX X  XXXXoXo",
"++++++@@++@@+@+@+@@@@@+@++++@@@@@++@+@+-----@-@++++@+@++-@-@@@@@",
"::=&%%=%===---@-@@#::=%#O+@+2,>>=====%#%;;;&=======%#O+-@@21;;;;",
"==&%%%%O%%&::==::::&%%#%#X+1&%%%=&%%&&%#%%%%%%=&%%%&%#X@->&%%%==",
"&&%%%%%%%&&%%%=&&&&%%%%#%o@;%%%=&%%&&%%%%%%%%=&%%%&%%%o-@:%%%&&&",
"&%%%%%%%&%&%%=&%&%%%%%%%%X+;%%;%%&&&%%%O%%%%=%%%&&&&%OX@@:%%;;%%",
"%&%%%#%%%%%%;%%&%%%%%%%%#X+;%&;%&%&%%%%%%%%;==&&&&%%%Oo@+=%=%%&&",
"&&%%#%%%%%%&;%&%%%%%%%=OoX+;%=%%%&%%%%O%%%;###%%&%&%O%o@@==&%&%%",
"%%%#%#%%%%%&%&%&%%%%%%OOoo+;=%%%&%%#%#%%;=#%#%#&%%%#%%o@+:&%%%&&",
"%%#%#%%%%%%&&%&%%%%%%=OOoX+$;%%%%%%O%%%&##%#%#%%%%%%%%o+#:&%%%%%",
"%%%#%%%%%%%&%&&%%#%%=O#Ooo@$%%%%%%OO%%&%%%#%%%%%%%%%%#o@:&%%%%%%",
"%=O#%%%O%%%%%%%%###%O#%#Oo+O%%%%%=O#%#%%%O%#%%%%%%%%##o+:%%%%%%%",
"=O#%%%%%%%%%%%%#%#%##%%%Oo@OO%%%%O#%#%%%#%%%%%%%%%%OOOo@=%%%%%%%",
"O#%%%%%%%%%%%##%#%#%%%%%%X+O#%%%O%#%%%%%%O##%#%=OOO#%#X+%#%%%=OO",
"OO#%%%%%%#%%%%%#%%%%%%%%#X@#%%=OO%%%%%%%%##%#%#O#O%%##X+#%#%%OOO",
"ooOO%%#O%#OOO%%%%%%%OO%%OX@#OOOO#%OO#%%O%#%###O%O%O#%OX+O#%%#ooo",
"XooooXXX   XXX XXo  XooXX+-@XXXoooooXoXX XXXXoXoooooXX++XXoXXXoo",
"@+++++@+@@++@+@@@@+@++@+@@--@@-@-@@@@@+@@@@@@@@@@++++@+@+-----@-",
"======%#O@@+211:;;$$O+++>:::;;;;#+$$OOO##---@@@@@@@+@:;;#OX><&==",
"=&&%%%&%#X+>===%%=;%%O;>$$$%&%%#o=;%%O#%OX-@2>::;::;:%&&%#%%&%%%",
"&%%%%&%%%o@=%=%&=%%%%$$#%#%%%%%o1%%%%%%%OX@>%%;&%&&%%%%%%%%%%%%=",
"%%%&&&&%OX+%=%;;%%%%%%%%##%%%#;O=%%%%%%=OX-;%;%%&%%%%%%%%O%%%%;%",
"%%&&&%%%Oo+=%=%%%%%%%%%#%#O%%=O%&%%%%%%Ooo@;%%%%%%%%%%%%%O%%%&;%",
"%%%&%&%O%o+%=&%%%%%%%%#%#O%%%#%%%&%%%%=oOX@O%%%%%%%%%%%%%%%%%=%%",
"%%&%%%#%%o+=&%%%%%%%%%%=%%O#%%%%%%%%%%OO#o@oO#%#%%%%#%%%%%%%=%%%",
"%%%%%%%%%o+=&%%&%&%%%%%%%#%O%%%%%%%%%#%%%o+OoOO%#%##%#%%%%%%;%%%",
"%%%%%%%%#o@=%%&&&%%%%%=%###O%%%%%%%%=%%%%o@O#%%OOO#%%%%%%%%%%%%%",
"%%%%%%%##o+=%%&&%%%%%%=#O##%%%%%%%%OO##%Oo+#%%%%%%O%%%%%%%%%%%%%",
"%%%%%%OOOo@=%&&%&%%%%%#O%%%%%%%O%#OO#%%%Oo+#%%%%%#%#%%=%%%%%O%%%",
"%==OOO#%#X@=&&%&%%%%%#O%O%%%O&O%%%%%%#%%#X+O%#%%%%%%%=#%%%%O##%#",
"#OO#O%%##X-%&%&%%#%%%O%#%%%%%O%O%%%%#%%%%o+O#%#%%%%%=#%#%%%##%#%",
"OO%O%O#%OX@#%%%%O%%%#O#oXOO#O%OOO%%%%%%%%X+OO#%#%%%=OO##%%%#%###",
"XooooooXX@-@XoXooXoXXX XXX XXoXoooo.ooXX +++XXXoXoooooXoXX XXXXo"
};
